name GIL06_xslow1Moments.mot
datacolumns 7
datarows 60
range 1.18333340 1.67499995
endheader

                time	          RHipMoment	          LHipMoment	         RKneeMoment	         LKneeMoment	        RAnkleMoment	        LAnkleMoment	
          1.18333340	        253.56394958	       -185.12965393	        -52.06825256	        -11.66632366	        -71.44925690	        561.02111816	
          1.19166660	        272.87118530	       -179.72195435	        -58.24199295	          2.49407220	        -66.00115204	        528.03527832	
          1.20000005	        278.75436401	       -173.40168762	        -66.68159485	         16.87976265	        -59.94135666	        496.18521118	
          1.20833325	        270.03369141	       -164.25157166	        -74.61682129	         30.92896461	        -54.98796463	        462.96890259	
          1.21666670	        256.00259399	       -143.18711853	        -84.95668030	         39.31450653	        -48.90672302	        430.43032837	
          1.22500002	        240.67967224	       -121.75570679	        -95.03847504	         47.04994202	        -44.18677139	        397.35275269	
          1.23333335	        234.55650330	        -97.38371277	       -107.82681274	         50.88537598	        -38.26638031	        364.55905151	
          1.24166667	        231.44340515	        -71.71509552	       -116.77205658	         50.31879425	        -33.88120270	        330.54281616	
          1.25000000	        237.95530701	        -49.76005554	       -124.77487183	         47.57075500	        -28.47847557	        295.79031372	
          1.25833333	        251.07159424	        -35.54515076	       -129.19517517	         44.65906906	        -24.90974808	        259.36108398	
          1.26666665	        266.97940063	        -27.25491905	       -129.64868164	         39.49936676	        -21.71769524	        222.21173096	
          1.27500010	        282.09893799	        -41.73014069	       -126.38453674	         42.12112427	        -19.53429794	        182.88169861	
          1.28333330	        297.39382935	        -69.04277039	       -122.37400818	         46.90240860	        -17.03509331	        143.56118774	
          1.29166675	        304.02401733	       -159.76510620	       -115.20631409	         84.30735779	        -14.86981869	         97.76242065	
          1.29999995	        306.27416992	       -142.85147095	       -109.05944824	         59.87592697	        -11.00109959	         66.06443787	
          1.30833340	        298.74154663	       -105.42565155	       -101.44211578	         25.45595741	         -7.75625277	         44.29663849	
          1.31666660	        285.21411133	        -86.95574188	        -95.19878387	          5.47967720	         -2.34551191	         28.35200119	
          1.32500005	        269.26251221	       -105.94316101	        -90.62965393	          9.59279156	          3.90218449	         11.98529625	
          1.33333325	        258.12026978	       -124.64397430	        -90.23461151	         15.64201546	         13.01387691	         -1.19693804	
          1.34166670	        246.47975159	       -132.30200195	        -89.19291687	         15.98295307	         21.58069611	         -9.51750088	
          1.35000002	        239.43923950	       -132.84027100	        -89.98827362	         14.30358219	         31.38581848	        -15.61223125	
          1.35833335	        232.54129028	       -136.51750183	        -90.21700287	         15.67481995	         41.12083054	        -19.69739151	
          1.36666667	        233.47337341	       -111.39414978	        -95.29507446	          1.42312992	         53.30263901	        -18.49049568	
          1.37500000	        233.73652649	       -127.88902283	       -102.18508911	         15.47303200	         65.54899597	        -18.65528107	
          1.38333333	        231.19174194	       -140.39453125	       -110.43698883	         28.07691956	         78.55905914	        -18.33578110	
          1.39166665	        226.20030212	       -148.34906006	       -121.65552521	         38.04283524	         92.48529816	        -17.60488319	
          1.39999998	        220.04505920	       -149.11993408	       -135.34425354	         44.50267029	        107.80587769	        -16.63431168	
          1.40833330	        210.67080688	       -145.93397522	       -150.48760986	         47.57200241	        123.97558594	        -15.64299297	
          1.41666663	        206.03639221	       -139.75477600	       -169.25776672	         47.87155151	        142.72445679	        -14.81797886	
          1.42499995	        203.30322266	       -134.69558716	       -188.88211060	         46.39884186	        162.47883606	        -14.26994514	
          1.43333340	        206.90675354	       -130.09036255	       -209.04942322	         43.81850815	        184.61602783	        -14.01917362	
          1.44166672	        204.03775024	       -128.45048523	       -222.43914795	         40.82472610	        205.81578064	        -13.99706459	
          1.45000005	        197.96060181	       -127.62312317	       -229.69720459	         37.63537979	        226.94816589	        -14.07937813	
          1.45833337	        185.70358276	       -127.44692230	       -229.32154846	         34.30860138	        245.90939331	        -14.13824844	
          1.46666670	        174.69409180	       -123.63404846	       -226.07754517	         30.46365166	        264.51098633	        -14.07473087	
          1.47500002	        160.98394775	       -115.95565033	       -219.65274048	         25.88738251	        280.76672363	        -13.83239460	
          1.48333335	        154.70364380	       -103.52833557	       -217.96446228	         20.66889572	        297.85781860	        -13.39006805	
          1.49166667	        149.11132813	        -88.10962677	       -218.32884216	         15.17696571	        314.06176758	        -12.75514317	
          1.50000000	        145.12684631	        -71.33623505	       -222.11547852	          9.97359943	        331.29455566	        -11.96857262	
          1.50833333	        137.87112427	        -56.36851501	       -225.71673584	          5.70193100	        347.68679810	        -11.09172344	
          1.51666665	        132.49537659	        -45.67317200	       -231.23478699	          2.82712865	        364.11428833	        -10.19866943	
          1.52499998	        128.49272156	        -40.65771866	       -235.21609497	          1.25592768	        378.12878418	         -9.37136364	
          1.53333330	        131.84243774	        -41.89822388	       -241.12138367	          0.58189350	        391.12265015	         -8.68381596	
          1.54166663	        140.27331543	        -47.38457489	       -247.30072021	         -0.39721313	        402.90069580	         -8.19790459	
          1.54999995	        152.24275208	        -55.45059967	       -254.76644897	         -2.81992078	        413.25558472	         -7.94393444	
          1.55833340	        163.00308228	        -62.19208145	       -261.39041138	         -7.88622665	        422.56695557	         -7.91772032	
          1.56666672	        171.21488953	        -66.29381561	       -268.72213745	        -15.93627548	        431.26513672	         -8.09184265	
          1.57500005	        170.41278076	        -66.50502014	       -272.97082520	        -26.67566872	        438.50668335	         -8.40494823	
          1.58333337	        164.83711243	        -63.22994232	       -276.43731689	        -39.14658356	        444.60961914	         -8.76309586	
          1.59166670	        155.47239685	        -56.75941849	       -278.86993408	        -52.20537567	        450.95764160	         -9.06903553	
          1.60000002	        145.61412048	        -50.25321198	       -281.64617920	        -64.01609039	        458.45489502	         -9.23574638	
          1.60833335	        137.91212463	        -46.08737183	       -284.40786743	        -73.07594299	        466.45153809	         -9.21158791	
          1.61666667	        137.85850525	        -45.70933533	       -290.04891968	        -78.75095367	        475.48168945	         -8.97989845	
          1.62500000	        143.91827393	        -48.03240585	       -297.18939209	        -81.41574097	        485.10644531	         -8.55094147	
          1.63333333	        155.06594849	        -51.45757294	       -306.24392700	        -81.85119629	        496.72048950	         -7.96677446	
          1.64166665	        160.86680603	        -54.20291519	       -311.39938354	        -80.98088837	        508.07742310	         -7.28191662	
          1.64999998	        163.89161682	        -53.88329315	       -315.22512817	        -79.87950134	        521.03643799	         -6.55249500	
          1.65833330	        160.63008118	        -48.01493835	       -315.50708008	        -79.60871887	        534.37933350	         -5.85267496	
          1.66666663	        155.57893372	        -36.41971588	       -315.36309814	        -80.40622711	        548.90997314	         -5.26941729	
          1.67499995	        145.45704651	        -21.02128029	       -312.60552979	        -81.65837860	        562.65808105	         -4.90019894	
